<svg xmlns="http://www.w3.org/2000/svg" width="77" height="14" fill="none">
    <path
        d="M74.626.566c-.875.389-1.219 1.141-1.219 2.661v1.008h-1.284v1.54h1.284v7.572H75.332V5.775H77v-1.54h-1.668v-.834c0-1.055.236-1.348 1.09-1.348H77v-.755c0-.674-.031-.763-.289-.832-.501-.135-1.685-.078-2.085.1M0 6.919v6.428l3.369-.002c4.169-.002 4.871-.148 5.923-1.231 1.354-1.394 1.129-4.219-.414-5.197-.322-.204-.691-.372-.818-.372s-.232-.058-.232-.128c0-.071.087-.129.192-.129.252 0 1.19-.851 1.404-1.273.279-.552.352-1.274.201-1.997-.184-.887-.89-1.713-1.824-2.132-.652-.293-.816-.307-4.24-.349L0 .492v6.427m31.698.011v6.417H33.623l.013-1.701.013-1.7.616-.552.616-.551 1.441 2.252 1.44 2.252H40.043l-1.931-2.892-1.931-2.892 1.705-1.659 1.705-1.658-1.143-.006-1.142-.005L35.497 6l-1.809 1.764-.035-3.625-.034-3.626H31.698V6.93m17.71 0v6.417H51.321l.038-3.264c.036-3.058.055-3.286.303-3.625.618-.848 2.133-1.199 2.97-.688.771.47.808.668.808 4.298v3.279H57.365V9.749c0-3.914-.038-4.167-.745-4.921-.558-.595-1.245-.844-2.335-.846-1.087-.001-2.064.359-2.632.972l-.32.345V.513H49.408V6.93m19.507 0v6.417H70.84V.513H68.915V6.93M6.678 2.599c.452.228.611.398.752.808.236.681.103 1.366-.368 1.892l-.367.412-2.257.04-2.256.041V2.31h1.962c1.779 0 2.015.027 2.534.289m7.567 1.499c-2.231.681-3.517 2.985-3.095 5.543.435 2.636 2.235 4.09 4.873 3.937 1.771-.103 3.039-.905 3.766-2.382.364-.738.423-1.002.466-2.089.1-2.478-.852-4.156-2.764-4.871-.717-.268-2.562-.346-3.246-.138m9.796.111c-1.756.625-2.725 2.061-2.838 4.203-.171 3.287 1.773 5.331 4.915 5.166 1.329-.07 2.246-.488 3.065-1.399 1.598-1.778 1.611-4.995.027-6.878-.177-.21-.686-.577-1.13-.816-.741-.397-.918-.437-2.093-.473-.996-.031-1.431.013-1.946.197m18.127.021c-1.237.496-1.993 1.63-1.818 2.724.201 1.261.951 1.799 3.283 2.355.812.194 1.631.43 1.821.526.979.492.972 1.595-.014 2.101-.401.206-1.738.216-2.333.017-.587-.195-1.018-.652-1.129-1.197l-.087-.425-.925-.038c-1.082-.044-1.105-.002-.661 1.185.541 1.446 1.747 2.061 4.043 2.061 1.327 0 1.471-.025 2.177-.386 2.079-1.064 2.167-3.673.158-4.698-.277-.142-1.293-.455-2.258-.697-1.274-.319-1.816-.515-1.979-.712-.704-.854.366-1.789 1.846-1.614.836.099 1.242.368 1.506.996l.21.499.883.002.883.001-.077-.472c-.128-.787-.712-1.573-1.497-2.016-.648-.364-.817-.4-2.053-.431-1.099-.028-1.464.012-1.979.219m19.56-.139c-2.093.685-3.206 2.546-3.047 5.097.117 1.88 1.014 3.307 2.523 4.015.631.296.877.336 2.064.335 1.17-.001 1.432-.042 1.984-.315.792-.391 1.557-1.144 1.875-1.845.376-.828.356-.855-.629-.855-.872 0-.878.003-1.187.482-.646 1.001-2.173 1.354-3.329.77-.726-.368-1.287-1.16-1.375-1.943l-.067-.592h3.546c4.032 0 3.64.144 3.413-1.256-.292-1.795-1.015-2.962-2.224-3.587-.563-.29-.846-.345-1.943-.375-.705-.02-1.427.012-1.604.069m2.21 1.433c.638.177 1.24.704 1.527 1.337.46 1.011.565.967-2.342.967H60.54l.075-.465c.229-1.408 1.781-2.267 3.323-1.839m-47.045.204c1.006.477 1.524 1.6 1.493 3.237-.035 1.834-.94 2.963-2.466 3.073-1.452.105-2.524-.748-2.838-2.259-.366-1.762.282-3.542 1.484-4.079.539-.24 1.793-.226 2.327.028m10.184.082c.802.425 1.306 1.366 1.384 2.588.167 2.592-1.396 4.141-3.569 3.538-.591-.164-1.344-.946-1.594-1.653-.224-.637-.261-2.16-.068-2.855.192-.688.647-1.292 1.221-1.617.709-.401 1.868-.401 2.626-.001M7.018 7.693c.686.311.99.864.99 1.804 0 .857-.289 1.453-.856 1.762-.342.187-.813.234-2.692.269l-2.278.043V7.443l2.149.003c1.834.003 2.229.039 2.687.247"
        fill-rule="evenodd" />
</svg>